<svg width="56" height="56" viewBox="0 0 56 56" fill="none" xmlns="http://www.w3.org/2000/svg">
<g filter="url(#filter0_bii_748_775)">
<rect x="1.76904" width="51.8737" height="51.8737" rx="13.3672" fill="white" fill-opacity="0.06"/>
</g>
<g filter="url(#filter1_i_748_775)">
<path d="M10.021 12.2631C10.021 10.0483 11.8164 8.25293 14.0312 8.25293H21.9266C24.1414 8.25293 25.9368 10.0483 25.9368 12.2631V20.1586C25.9368 22.3733 24.1414 24.1687 21.9266 24.1687H14.0312C11.8164 24.1687 10.021 22.3733 10.021 20.1586V12.2631Z" fill="white" fill-opacity="0.1"/>
</g>
<g filter="url(#filter2_i_748_775)">
<path d="M29.4736 32.3051C29.4736 30.0903 31.269 28.2949 33.4838 28.2949H41.3793C43.594 28.2949 45.3894 30.0903 45.3894 32.3051V40.2006C45.3894 42.4153 43.594 44.2107 41.3793 44.2107H33.4838C31.269 44.2107 29.4736 42.4153 29.4736 40.2005V32.3051Z" fill="white" fill-opacity="0.1"/>
</g>
<g filter="url(#filter3_i_748_775)">
<path d="M29.4736 12.2631C29.4736 10.0483 31.269 8.25293 33.4838 8.25293H41.3793C43.594 8.25293 45.3894 10.0483 45.3894 12.2631V20.1586C45.3894 22.3733 43.594 24.1687 41.3793 24.1687H33.4838C31.269 24.1687 29.4736 22.3733 29.4736 20.1586V12.2631Z" fill="white" fill-opacity="0.1"/>
</g>
<g filter="url(#filter4_i_748_775)">
<path d="M10.021 32.3051C10.021 30.0903 11.8164 28.2949 14.0312 28.2949H21.9266C24.1414 28.2949 25.9368 30.0903 25.9368 32.3051V40.2006C25.9368 42.4153 24.1414 44.2107 21.9266 44.2107H14.0312C11.8164 44.2107 10.021 42.4153 10.021 40.2005V32.3051Z" fill="white" fill-opacity="0.1"/>
</g>
<defs>
<filter id="filter0_bii_748_775" x="-24.9654" y="-26.7344" width="105.342" height="105.343" filterUnits="userSpaceOnUse" color-interpolation-filters="sRGB">
<feFlood flood-opacity="0" result="BackgroundImageFix"/>
<feGaussianBlur in="BackgroundImageFix" stdDeviation="13.3672"/>
<feComposite in2="SourceAlpha" operator="in" result="effect1_backgroundBlur_748_775"/>
<feBlend mode="normal" in="SourceGraphic" in2="effect1_backgroundBlur_748_775" result="shape"/>
<feColorMatrix in="SourceAlpha" type="matrix" values="0 0 0 0 0 0 0 0 0 0 0 0 0 0 0 0 0 0 127 0" result="hardAlpha"/>
<feOffset dy="1.33672"/>
<feGaussianBlur stdDeviation="0.66836"/>
<feComposite in2="hardAlpha" operator="arithmetic" k2="-1" k3="1"/>
<feColorMatrix type="matrix" values="0 0 0 0 1 0 0 0 0 1 0 0 0 0 1 0 0 0 0.15 0"/>
<feBlend mode="normal" in2="shape" result="effect2_innerShadow_748_775"/>
<feColorMatrix in="SourceAlpha" type="matrix" values="0 0 0 0 0 0 0 0 0 0 0 0 0 0 0 0 0 0 127 0" result="hardAlpha"/>
<feOffset/>
<feGaussianBlur stdDeviation="10.0254"/>
<feComposite in2="hardAlpha" operator="arithmetic" k2="-1" k3="1"/>
<feColorMatrix type="matrix" values="0 0 0 0 1 0 0 0 0 1 0 0 0 0 1 0 0 0 0.05 0"/>
<feBlend mode="normal" in2="effect2_innerShadow_748_775" result="effect3_innerShadow_748_775"/>
</filter>
<filter id="filter1_i_748_775" x="10.021" y="8.25293" width="15.916" height="17.2527" filterUnits="userSpaceOnUse" color-interpolation-filters="sRGB">
<feFlood flood-opacity="0" result="BackgroundImageFix"/>
<feBlend mode="normal" in="SourceGraphic" in2="BackgroundImageFix" result="shape"/>
<feColorMatrix in="SourceAlpha" type="matrix" values="0 0 0 0 0 0 0 0 0 0 0 0 0 0 0 0 0 0 127 0" result="hardAlpha"/>
<feOffset dy="1.33672"/>
<feGaussianBlur stdDeviation="0.66836"/>
<feComposite in2="hardAlpha" operator="arithmetic" k2="-1" k3="1"/>
<feColorMatrix type="matrix" values="0 0 0 0 1 0 0 0 0 1 0 0 0 0 1 0 0 0 0.15 0"/>
<feBlend mode="normal" in2="shape" result="effect1_innerShadow_748_775"/>
</filter>
<filter id="filter2_i_748_775" x="29.4736" y="28.2949" width="15.916" height="17.2527" filterUnits="userSpaceOnUse" color-interpolation-filters="sRGB">
<feFlood flood-opacity="0" result="BackgroundImageFix"/>
<feBlend mode="normal" in="SourceGraphic" in2="BackgroundImageFix" result="shape"/>
<feColorMatrix in="SourceAlpha" type="matrix" values="0 0 0 0 0 0 0 0 0 0 0 0 0 0 0 0 0 0 127 0" result="hardAlpha"/>
<feOffset dy="1.33672"/>
<feGaussianBlur stdDeviation="0.66836"/>
<feComposite in2="hardAlpha" operator="arithmetic" k2="-1" k3="1"/>
<feColorMatrix type="matrix" values="0 0 0 0 1 0 0 0 0 1 0 0 0 0 1 0 0 0 0.15 0"/>
<feBlend mode="normal" in2="shape" result="effect1_innerShadow_748_775"/>
</filter>
<filter id="filter3_i_748_775" x="29.4736" y="8.25293" width="15.916" height="17.2527" filterUnits="userSpaceOnUse" color-interpolation-filters="sRGB">
<feFlood flood-opacity="0" result="BackgroundImageFix"/>
<feBlend mode="normal" in="SourceGraphic" in2="BackgroundImageFix" result="shape"/>
<feColorMatrix in="SourceAlpha" type="matrix" values="0 0 0 0 0 0 0 0 0 0 0 0 0 0 0 0 0 0 127 0" result="hardAlpha"/>
<feOffset dy="1.33672"/>
<feGaussianBlur stdDeviation="0.66836"/>
<feComposite in2="hardAlpha" operator="arithmetic" k2="-1" k3="1"/>
<feColorMatrix type="matrix" values="0 0 0 0 1 0 0 0 0 1 0 0 0 0 1 0 0 0 0.15 0"/>
<feBlend mode="normal" in2="shape" result="effect1_innerShadow_748_775"/>
</filter>
<filter id="filter4_i_748_775" x="10.021" y="28.2949" width="15.916" height="17.2527" filterUnits="userSpaceOnUse" color-interpolation-filters="sRGB">
<feFlood flood-opacity="0" result="BackgroundImageFix"/>
<feBlend mode="normal" in="SourceGraphic" in2="BackgroundImageFix" result="shape"/>
<feColorMatrix in="SourceAlpha" type="matrix" values="0 0 0 0 0 0 0 0 0 0 0 0 0 0 0 0 0 0 127 0" result="hardAlpha"/>
<feOffset dy="1.33672"/>
<feGaussianBlur stdDeviation="0.66836"/>
<feComposite in2="hardAlpha" operator="arithmetic" k2="-1" k3="1"/>
<feColorMatrix type="matrix" values="0 0 0 0 1 0 0 0 0 1 0 0 0 0 1 0 0 0 0.15 0"/>
<feBlend mode="normal" in2="shape" result="effect1_innerShadow_748_775"/>
</filter>
</defs>
</svg>
