<svg width="57" height="56" viewBox="0 0 57 56" fill="none" xmlns="http://www.w3.org/2000/svg">
<g filter="url(#filter0_bii_748_806)">
<path d="M56.82 28.41C56.82 43.5481 44.5481 55.82 29.41 55.82C14.2719 55.82 2 43.5481 2 28.41C2 13.2719 14.2719 1 29.41 1C44.5481 1 56.82 13.2719 56.82 28.41Z" fill="white" fill-opacity="0.06"/>
</g>
<g filter="url(#filter1_i_748_806)">
<path d="M26.277 15.7974C25.6177 17.2283 25.25 18.8212 25.25 20.5C25.25 26.7132 30.2867 31.75 36.5 31.75C38.1787 31.75 39.7717 31.3822 41.2025 30.723C39.9597 36.3171 34.9684 40.5 29 40.5C22.0964 40.5 16.5 34.9035 16.5 28C16.5 22.0316 20.6829 17.0403 26.277 15.7974ZM36.7052 15.8638L37.75 16.125V17.375L36.7052 17.6362C35.8095 17.8601 35.1101 18.5595 34.8862 19.4552L34.625 20.5H33.375L33.1137 19.4552C32.8899 18.5595 32.1905 17.8601 31.2947 17.6362L30.25 17.375V16.125L31.2947 15.8638C32.1905 15.6399 32.8899 14.9405 33.1137 14.0448L33.375 13H34.625L34.8862 14.0448C35.1101 14.9405 35.8095 15.6399 36.7052 15.8638ZM42.9552 22.1138L44 22.375V23.625L42.9552 23.8862C42.0595 24.1101 41.3601 24.8095 41.1362 25.7052L40.875 26.75H39.625L39.3637 25.7052C39.1399 24.8095 38.4405 24.1101 37.5447 23.8862L36.5 23.625V22.375L37.5447 22.1138C38.4405 21.8899 39.1399 21.1905 39.3637 20.2948L39.625 19.25H40.875L41.1362 20.2948C41.3601 21.1905 42.0595 21.8899 42.9552 22.1138Z" fill="white" fill-opacity="0.1"/>
</g>
<defs>
<filter id="filter0_bii_748_806" x="-43.353" y="-44.353" width="145.526" height="145.526" filterUnits="userSpaceOnUse" color-interpolation-filters="sRGB">
<feFlood flood-opacity="0" result="BackgroundImageFix"/>
<feGaussianBlur in="BackgroundImageFix" stdDeviation="22.6765"/>
<feComposite in2="SourceAlpha" operator="in" result="effect1_backgroundBlur_748_806"/>
<feBlend mode="normal" in="SourceGraphic" in2="effect1_backgroundBlur_748_806" result="shape"/>
<feColorMatrix in="SourceAlpha" type="matrix" values="0 0 0 0 0 0 0 0 0 0 0 0 0 0 0 0 0 0 127 0" result="hardAlpha"/>
<feOffset dy="2.26765"/>
<feGaussianBlur stdDeviation="1.13383"/>
<feComposite in2="hardAlpha" operator="arithmetic" k2="-1" k3="1"/>
<feColorMatrix type="matrix" values="0 0 0 0 1 0 0 0 0 1 0 0 0 0 1 0 0 0 0.15 0"/>
<feBlend mode="normal" in2="shape" result="effect2_innerShadow_748_806"/>
<feColorMatrix in="SourceAlpha" type="matrix" values="0 0 0 0 0 0 0 0 0 0 0 0 0 0 0 0 0 0 127 0" result="hardAlpha"/>
<feOffset/>
<feGaussianBlur stdDeviation="17.0074"/>
<feComposite in2="hardAlpha" operator="arithmetic" k2="-1" k3="1"/>
<feColorMatrix type="matrix" values="0 0 0 0 1 0 0 0 0 1 0 0 0 0 1 0 0 0 0.05 0"/>
<feBlend mode="normal" in2="effect2_innerShadow_748_806" result="effect3_innerShadow_748_806"/>
</filter>
<filter id="filter1_i_748_806" x="14" y="13" width="30" height="31.3367" filterUnits="userSpaceOnUse" color-interpolation-filters="sRGB">
<feFlood flood-opacity="0" result="BackgroundImageFix"/>
<feBlend mode="normal" in="SourceGraphic" in2="BackgroundImageFix" result="shape"/>
<feColorMatrix in="SourceAlpha" type="matrix" values="0 0 0 0 0 0 0 0 0 0 0 0 0 0 0 0 0 0 127 0" result="hardAlpha"/>
<feOffset dy="1.33672"/>
<feGaussianBlur stdDeviation="0.66836"/>
<feComposite in2="hardAlpha" operator="arithmetic" k2="-1" k3="1"/>
<feColorMatrix type="matrix" values="0 0 0 0 1 0 0 0 0 1 0 0 0 0 1 0 0 0 0.15 0"/>
<feBlend mode="normal" in2="shape" result="effect1_innerShadow_748_806"/>
</filter>
</defs>
</svg>
